<svg width="24" height="24" viewBox="0 0 24 24" fill="none" xmlns="http://www.w3.org/2000/svg">
<path d="M12 15.575C13.1334 15.575 14.0957 15.179 14.887 14.387C15.679 13.5957 16.075 12.6333 16.075 11.5C16.075 10.3667 15.679 9.40433 14.887 8.613C14.0957 7.821 13.1334 7.425 12 7.425C10.8667 7.425 9.90438 7.821 9.11305 8.613C8.32105 9.40433 7.92505 10.3667 7.92505 11.5C7.92505 12.6333 8.32105 13.5957 9.11305 14.387C9.90438 15.179 10.8667 15.575 12 15.575ZM12 14.2C11.25 14.2 10.6127 13.9373 10.088 13.412C9.56272 12.8873 9.30005 12.25 9.30005 11.5C9.30005 10.75 9.56272 10.1123 10.088 9.587C10.6127 9.06233 11.25 8.8 12 8.8C12.75 8.8 13.3877 9.06233 13.913 9.587C14.4377 10.1123 14.7 10.75 14.7 11.5C14.7 12.25 14.4377 12.8873 13.913 13.412C13.3877 13.9373 12.75 14.2 12 14.2ZM12 18.5C9.70005 18.5 7.60438 17.8667 5.71305 16.6C3.82105 15.3333 2.43338 13.6333 1.55005 11.5C2.43338 9.36667 3.82105 7.66667 5.71305 6.4C7.60438 5.13333 9.70005 4.5 12 4.5C14.3 4.5 16.396 5.13333 18.288 6.4C20.1794 7.66667 21.5667 9.36667 22.4501 11.5C21.5667 13.6333 20.1794 15.3333 18.288 16.6C16.396 17.8667 14.3 18.5 12 18.5ZM12 17C13.8834 17 15.6127 16.504 17.188 15.512C18.7627 14.5207 19.9667 13.1833 20.8 11.5C19.9667 9.81667 18.7627 8.479 17.188 7.487C15.6127 6.49567 13.8834 6 12 6C10.1167 6 8.38738 6.49567 6.81205 7.487C5.23738 8.479 4.03338 9.81667 3.20005 11.5C4.03338 13.1833 5.23738 14.5207 6.81205 15.512C8.38738 16.504 10.1167 17 12 17Z" fill="black"/>
</svg>
