<svg width="41" height="40" viewBox="0 0 41 40" fill="none" xmlns="http://www.w3.org/2000/svg">
<path fill-rule="evenodd" clip-rule="evenodd" d="M11.8324 40H29.1656C35.9462 40 40.5 35.2438 40.5 28.1666V11.8334C40.5 4.75623 35.9462 0 29.1676 0H11.8324C5.05379 0 0.5 4.75623 0.5 11.8334V28.1666C0.5 35.2438 5.05379 40 11.8324 40ZM13.4977 18C10.7404 18 8.5 15.7565 8.5 13C8.5 10.2435 10.7404 8 13.4977 8C16.253 8 18.4954 10.2435 18.4954 13C18.4954 15.7565 16.253 18 13.4977 18ZM36.1416 25.8678C36.8113 27.5851 36.4634 29.6491 35.7474 31.3498C34.8987 33.3725 33.2737 34.904 31.2264 35.5727C30.3173 35.8699 29.364 35.9999 28.4128 35.9999H11.5573C9.87999 35.9999 8.39576 35.5975 7.17901 34.8482C6.41678 34.3776 6.28203 33.292 6.84717 32.5882C7.79241 31.4117 8.72558 30.2311 9.6668 29.0402C11.4608 26.7615 12.6695 26.1011 14.0129 26.6811C14.5579 26.9205 15.105 27.2796 15.6681 27.6594C17.1684 28.679 19.254 30.0804 22.0012 28.5593C23.8812 27.5063 24.9716 25.7002 25.9212 24.1274L25.937 24.1011C26.0043 23.9907 26.071 23.8804 26.1375 23.7704C26.4566 23.2423 26.7715 22.7214 27.1276 22.2414C27.5741 21.6408 29.2293 19.7626 31.3732 21.1C32.7388 21.9421 33.8871 23.0815 35.1159 24.3013C35.5845 24.7677 35.9184 25.2982 36.1416 25.8678Z" fill="#999999"/>
</svg>
